# xmcd
#
# Track frame offsets:
# 150
# 12285
# 32405
# 53057
# 86195
# 107782
# 131595
# 157790
# 185517
# 224132
# 257862
# 275092
# 299090
#
# Disc length: 4714 seconds
#
# Revision: 2
# Processed by: cddbd v1.4PL0 Copyright (c) Steve Scherf et al.
# Submitted via: Axialis_AX_CDPlayer 2.6
#
DISCID=c612680d
DTITLE=Damage - Forever
DYEAR=1900
DGENRE=
TTITLE0=Reminder
TTITLE1=Love II Love
TTITLE2=Love Guaranteed
TTITLE3=Girlfriend
TTITLE4=Let It Be Me
TTITLE5=Wonderful Tonight
TTITLE6=Love Lady
TTITLE7=Anything
TTITLE8=Be My Baby
TTITLE9=Forever
TTITLE10=Do Me That Way
TTITLE11=Storyteller
TTITLE12=In Your Eyes
EXTD=
EXTT0=
EXTT1=
EXTT2=
EXTT3=
EXTT4=
EXTT5=
EXTT6=
EXTT7=
EXTT8=
EXTT9=
EXTT10=
EXTT11=
EXTT12=
PLAYORDER=
